<svg xmlns="http://www.w3.org/2000/svg" viewBox="0 0 256 256">
  <defs>
    <linearGradient id="bg" x1="0" y1="0" x2="1" y2="1">
      <stop offset="0%" stop-color="#0ea5e9"/>
      <stop offset="100%" stop-color="#2563eb"/>
    </linearGradient>
  </defs>
  <rect x="16" y="16" width="224" height="224" rx="48" fill="url(#bg)"/>
  <path d="M82 88h92a10 10 0 0 1 10 10v60a10 10 0 0 1-10 10H82a10 10 0 0 1-10-10V98a10 10 0 0 1 10-10z" fill="#ffffff" opacity="0.95"/>
  <rect x="72" y="108" width="112" height="14" rx="7" fill="#93c5fd"/>
  <circle cx="98" cy="150" r="12" fill="#22c55e"/>
  <path d="M93 150l4 4 8-9" fill="none" stroke="#ffffff" stroke-width="4" stroke-linecap="round" stroke-linejoin="round"/>
  <path d="M124 140h38M124 154h28" stroke="#1e3a8a" stroke-width="8" stroke-linecap="round"/>
  <path d="M46 196c31 18 133 18 164 0" fill="none" stroke="#bfdbfe" stroke-width="10" stroke-linecap="round" opacity="0.9"/>
</svg>
